<svg width="24" height="28" viewBox="0 0 24 28" fill="none" xmlns="http://www.w3.org/2000/svg">
<path d="M3.69892 6.64976V5.14976C2.92843 5.14976 2.28324 5.7335 2.2064 6.50015L3.69892 6.64976ZM2.12 22.4017L0.627474 22.2521L0.619995 22.3267V22.4017H2.12ZM12.6463 8.14976C13.4747 8.14976 14.1463 7.47819 14.1463 6.64976C14.1463 5.82133 13.4747 5.14976 12.6463 5.14976V8.14976ZM12.6463 27.4586C13.4747 27.4586 14.1463 26.787 14.1463 25.9586C14.1463 25.1301 13.4747 24.4586 12.6463 24.4586V27.4586ZM20.5411 6.64976L22.0336 6.50015C21.9567 5.7335 21.3116 5.14976 20.5411 5.14976V6.64976ZM22.12 22.4017H23.62V22.3267L23.6125 22.2521L22.12 22.4017ZM11.5937 5.14976C10.7653 5.14976 10.0937 5.82133 10.0937 6.64976C10.0937 7.47819 10.7653 8.14976 11.5937 8.14976V5.14976ZM11.5937 24.4586C10.7653 24.4586 10.0937 25.1301 10.0937 25.9586C10.0937 26.787 10.7653 27.4586 11.5937 27.4586V24.4586ZM14.8305 10.2066C14.8305 11.0351 15.5021 11.7066 16.3305 11.7066C17.1589 11.7066 17.8305 11.0351 17.8305 10.2066H14.8305ZM16.3305 5.63351H17.8305V5.5464L17.8204 5.45988L16.3305 5.63351ZM7.90947 5.63351L6.41654 5.48803L6.40947 5.56059V5.63351H7.90947ZM6.40947 10.2066C6.40947 11.0351 7.08104 11.7066 7.90947 11.7066C8.7379 11.7066 9.40947 11.0351 9.40947 10.2066H6.40947ZM2.2064 6.50015L0.627474 22.2521L3.61252 22.5513L5.19144 6.79936L2.2064 6.50015ZM3.69892 8.14976H12.6463V5.14976H3.69892V8.14976ZM0.619995 22.4017C0.619995 23.659 0.945962 24.9653 1.87806 25.9651C2.82857 26.9848 4.19623 27.4586 5.80418 27.4586V24.4586C4.78058 24.4586 4.30615 24.1702 4.07245 23.9195C3.82034 23.6491 3.62 23.1769 3.62 22.4017H0.619995ZM5.80418 27.4586H12.6463V24.4586H5.80418V27.4586ZM19.0486 6.79937L20.6275 22.5513L23.6125 22.2521L22.0336 6.50015L19.0486 6.79937ZM20.5411 5.14976H11.5937V8.14976H20.5411V5.14976ZM20.62 22.4017C20.62 23.1769 20.4196 23.6491 20.1675 23.9195C19.9338 24.1702 19.4594 24.4586 18.4358 24.4586V27.4586C20.0438 27.4586 21.4114 26.9848 22.3619 25.9651C23.294 24.9653 23.62 23.659 23.62 22.4017H20.62ZM18.4358 24.4586H11.5937V27.4586H18.4358V24.4586ZM17.8305 10.2066V5.63351H14.8305V10.2066H17.8305ZM17.8204 5.45988C17.4277 2.08941 14.6495 0.453664 12.0808 0.458586C9.51313 0.463505 6.74536 2.11367 6.41654 5.48803L9.4024 5.77899C9.54958 4.26858 10.7059 3.46123 12.0866 3.45858C13.4662 3.45594 14.6606 4.26257 14.8406 5.80714L17.8204 5.45988ZM6.40947 5.63351V10.2066H9.40947V5.63351H6.40947Z" fill="white"/>
</svg>
